# xmcd CD database file
#
# Track frame offsets:
#	150
#	12915
#	27725
#	42605
#	58367
#	74131
#	88504
#	105525
#	121541
#	137516
#	154308
#	170161
#
# Disc length: 2486 seconds
#
# Revision: 0
# Processed by: cddbd v1.5.2PL0 Copyright (c) Steve Scherf et al.
# Submitted via: CDex 1.51
#
DISCID=ae09b40c
DTITLE=Corey Smith - While The Gettin' Is Good
DYEAR=2015
DGENRE=Country
TTITLE0=Don't Mind
TTITLE1=Ain't Going Out Tonight
TTITLE2=Flip-Flop
TTITLE3=My Kinda Lady
TTITLE4=Feet Wet
TTITLE5=Taking The Edge Off
TTITLE6=Dahlonega
TTITLE7=Blow Me Away
TTITLE8=Pride
TTITLE9=The Baseball Song
TTITLE10=Drinkin' On My Mind
TTITLE11=Bend
EXTD=YEAR: 2015
EXTT0=
EXTT1=
EXTT2=
EXTT3=
EXTT4=
EXTT5=
EXTT6=
EXTT7=
EXTT8=
EXTT9=
EXTT10=
EXTT11=
PLAYORDER=
